HIERARCHY
ROOT Hips
{
	OFFSET 0.00000 0.00000 0.00000
	CHANNELS 6 Xposition Yposition Zposition Zrotation Yrotation Xrotation 
	JOINT LHipJoint
	{
		OFFSET 0 0 0
		CHANNELS 3 Zrotation Yrotation Xrotation
		JOINT LeftHip
		{
			OFFSET 1.62067 -1.77917 0.70989
			CHANNELS 3 Zrotation Yrotation Xrotation
			JOINT LeftKnee
			{
				OFFSET 2.34532 -6.44371 0.00000
				CHANNELS 3 Zrotation Yrotation Xrotation
				JOINT LeftAnkle
				{
					OFFSET 2.74224 -7.53425 0.00000
					CHANNELS 3 Zrotation Yrotation Xrotation
					JOINT LeftToe
					{
						OFFSET 0.17032 -0.46794 2.08086
						CHANNELS 3 Zrotation Yrotation Xrotation
						End Site
						{
							OFFSET 0.00000 -0.00000 1.07476
						}
					}
				}
			}
		}
	}
	JOINT RHipJoint
	{
		OFFSET 0 0 0
		CHANNELS 3 Zrotation Yrotation Xrotation
		JOINT RightHip
		{
			OFFSET -1.55811 -1.77917 0.70989
			CHANNELS 3 Zrotation Yrotation Xrotation
			JOINT RightKnee
			{
				OFFSET -2.33243 -6.40830 0.00000
				CHANNELS 3 Zrotation Yrotation Xrotation
				JOINT RightAnkle
				{
					OFFSET -2.78798 -7.65993 0.00000
					CHANNELS 3 Zrotation Yrotation Xrotation
					JOINT RightToe
					{
						OFFSET -0.22707 -0.62388 2.04059
						CHANNELS 3 Zrotation Yrotation Xrotation
						End Site
						{
							OFFSET -0.00000 -0.00000 1.07030
						}
					}
				}
			}
		}
	}
	JOINT lowerback
	{
		OFFSET 0 0 0
		CHANNELS 3 Zrotation Yrotation Xrotation
		JOINT Chest
		{
			OFFSET 0.02203 1.91565 0.07161
			CHANNELS 3 Zrotation Yrotation Xrotation
			JOINT Chest2
			{
				OFFSET 0.01740 1.90525 0.11636
				CHANNELS 3 Zrotation Yrotation Xrotation
				JOINT lowerneck
				{
					OFFSET 0 0 0
					CHANNELS 3 Zrotation Yrotation Xrotation
					JOINT Neck
					{
						OFFSET -0.10841 1.83566 0.05067
						CHANNELS 3 Zrotation Yrotation Xrotation
						JOINT Head
						{
							OFFSET 0.06601 1.74760 -0.50505
							CHANNELS 3 Zrotation Yrotation Xrotation
							End Site
							{
								OFFSET 0.03102 1.85215 -0.17697
							}
						}
					}
				}
				JOINT LeftCollar
				{
					OFFSET 0 0 0
					CHANNELS 3 Zrotation Yrotation Xrotation
					JOINT LeftShoulder
					{
						OFFSET 2.87059 1.35470 0.16111
CHANNELS 3 Zrotation Xrotation Yrotation
						JOINT LeftElbow
						{
OFFSET 0 -5.435920 0.000000
CHANNELS 3 Zrotation Xrotation Yrotation
							JOINT LeftWrist
							{
OFFSET 0 -3.254600 0.000000
CHANNELS 3 Zrotation Xrotation Yrotation
								JOINT lhand
								{
									OFFSET 0 0 0
CHANNELS 3 Zrotation Xrotation Yrotation
									JOINT LFingers
									{
OFFSET 0 -0.498240 0.000000
CHANNELS 3 Zrotation Xrotation Yrotation
										End Site
										{
OFFSET 0 -0.401700 0.000000
										}
									}
								}
								JOINT LThumb
								{
OFFSET 0 0.000000 0.000000
CHANNELS 3 Zrotation Xrotation Yrotation
									End Site
									{
OFFSET 0 -0.407830 0.407830
									}
								}
							}
						}
					}
				}
				JOINT RightCollar
				{
					OFFSET 0 0 0
					CHANNELS 3 Zrotation Yrotation Xrotation
					JOINT RightShoulder
					{
						OFFSET -2.86643 1.23488 0.45957
CHANNELS 3 Zrotation Xrotation Yrotation
						JOINT RightElbow
						{
OFFSET 0 -5.338300 0.000000
CHANNELS 3 Zrotation Xrotation Yrotation
							JOINT RightWrist
							{
OFFSET 0 -3.231480 0.000000
CHANNELS 3 Zrotation Xrotation Yrotation
								JOINT rhand
								{
									OFFSET 0 0 0
CHANNELS 3 Zrotation Xrotation Yrotation
									JOINT RFingers
									{
OFFSET 0 -0.463640 0.000000
CHANNELS 3 Zrotation Xrotation Yrotation
										End Site
										{
OFFSET 0 -0.373800 0.000000
										}
									}
								}
								JOINT RThumb
								{
OFFSET 0 0.000000 0.000000
CHANNELS 3 Zrotation Xrotation Yrotation
									End Site
									{
OFFSET 0 -0.379510 0.379510
									}
								}
							}
						}
					}
				}
			}
		}
	}
}
MOTION
Frames: 4
Frame Time: 0.008333333333333333
-1.149900 17.514100 5.030200 37.565400 -83.406900 -17.122800 0.000000 0.000000 0.000000 -33.630900 -0.506200 -11.917900 0.000000 -0.000000 -0.000000 0.266000 3.384100 -11.592100 1.309500 7.248800 20.454500 0.000000 0.000000 0.000000 -9.808000 15.126900 -2.357700 -0.617400 -5.028800 13.990800 -1.104500 -14.108800 -29.415500 -5.750100 -14.181700 43.970200 5.549000 1.400600 -12.086600 -0.577200 0.572100 -13.834000 -3.629400 -0.651200 -7.975300 12.989100 17.926100 -6.240900 2.216800 22.446800 12.211400 0.578100 11.644500 5.879800 0.000000 -0.000000 0.000000 126.756300 -10.524700 38.329200 15.582400 -24.951200 3.467900 26.600800 -48.007800 18.953600 0.000000 0.000000 0.000000 -7.125000 0.000000 0.000000 -1.043700 8.972000 -0.868300 0.000000 -0.000000 0.000000 -120.904100 8.789800 -21.025600 -132.488700 -51.941100 -95.799600 -9.055600 -55.351000 52.729600 0.000000 0.000000 0.000000 7.125000 0.000000 -0.000000 67.176200 74.532400 -51.720600
-1.152195 17.518493 5.031998 37.178183 -83.483756 -16.862199 0.000000 0.000000 0.000000 -33.531619 -0.368245 -11.823311 0.000000 0.000000 0.000000 0.266610 3.337915 -11.568057 1.309486 7.248688 20.454256 0.000000 0.000000 0.000000 -9.673058 15.221223 -2.298342 -0.627958 -5.070633 14.110124 -1.254515 -13.531512 -29.894773 -6.009682 -14.437688 45.020445 5.714443 1.541258 -11.997284 -0.491309 0.761542 -13.840913 -3.620229 -0.566320 -8.014033 12.371456 17.752334 -5.999310 2.161283 22.336649 12.004899 0.572961 11.565038 5.707001 0.000000 0.000000 0.000000 126.516168 -10.969378 38.954428 15.473909 -24.802249 3.422246 26.857596 -47.404836 18.669926 0.000000 0.000000 0.000000 -7.125000 0.000000 0.000000 -0.847122 9.237334 -0.700199 0.000000 0.000000 0.000000 -121.514870 8.939975 -21.103547 -132.465119 -51.951547 -95.780993 -11.832046 -53.851752 51.076301 0.000000 0.000000 0.000000 7.125000 0.000000 0.000000 59.893505 74.980436 -45.722540
-1.151802 17.520899 5.034501 36.994912 -83.424093 -16.659572 0.000000 0.000000 0.000000 -33.566436 -0.441790 -11.803461 0.000000 0.000000 0.000000 0.229608 3.630413 -11.135111 0.834293 5.826762 16.282587 0.000000 0.000000 0.000000 -9.677227 15.074831 -2.465409 -0.649429 -5.154822 14.350704 -1.974087 -9.943039 -31.661801 -6.805835 -15.166180 48.136125 5.668304 1.602597 -12.039028 -0.536950 0.844056 -13.821224 -3.639182 -0.519702 -7.958328 12.329315 17.678080 -6.210417 2.130159 22.215080 12.092268 0.581051 11.503010 5.762597 0.000000 0.000000 0.000000 126.544334 -11.085421 39.046277 15.422064 -24.730739 3.400594 26.787790 -47.988602 19.372584 0.000000 0.000000 0.000000 -7.125000 0.000000 0.000000 -0.969150 8.483345 -0.815674 0.000000 0.000000 0.000000 -121.587652 9.400632 -20.939556 -132.162139 -52.085331 -95.542262 -9.727110 -55.682489 51.144955 0.000000 0.000000 0.000000 7.125000 0.000000 0.000000 61.439322 74.212961 -46.258818
-1.151806 17.520304 5.033590 37.158512 -83.475631 -16.895824 0.000000 0.000000 0.000000 -33.571661 -0.339124 -11.725554 0.000000 0.000000 0.000000 0.231187 3.666513 -11.191972 0.848377 5.874641 16.421300 0.000000 0.000000 0.000000 -9.673008 14.967127 -2.566132 -0.662848 -5.207099 14.500222 -1.980419 -9.807506 -31.608819 -6.779280 -15.143242 48.034572 5.818690 1.551494 -12.003622 -0.511192 0.767960 -13.829168 -3.699665 -0.572544 -7.997442 12.403585 17.747252 -5.840352 1.874815 22.393115 11.894978 0.475632 11.575740 5.685395 0.000000 0.000000 0.000000 126.541250 -10.854981 38.708772 15.385543 -24.680422 3.385277 26.532107 -47.891866 19.310836 0.000000 0.000000 0.000000 -7.125000 0.000000 0.000000 -1.126813 8.595107 -0.945940 0.000000 0.000000 0.000000 -121.632073 9.116506 -21.046330 -132.124280 -52.101965 -95.512363 -10.235004 -55.304695 50.994191 0.000000 0.000000 0.000000 7.125000 0.000000 0.000000 60.623368 74.341764 -45.684661
